<?xml version="1.0" encoding="utf-8" standalone="no"?>
<!DOCTYPE svg PUBLIC "-//W3C//DTD SVG 1.1//EN"
  "http://www.w3.org/Graphics/SVG/1.1/DTD/svg11.dtd">
<svg xmlns:xlink="http://www.w3.org/1999/xlink" width="460.8pt" height="345.6pt" viewBox="0 0 460.8 345.6" xmlns="http://www.w3.org/2000/svg" version="1.1">
 <metadata>
  <rdf:RDF xmlns:dc="http://purl.org/dc/elements/1.1/" xmlns:cc="http://creativecommons.org/ns#" xmlns:rdf="http://www.w3.org/1999/02/22-rdf-syntax-ns#">
   <cc:Work>
    <dc:type rdf:resource="http://purl.org/dc/dcmitype/StillImage"/>
    <dc:date>2023-11-16T04:17:33.496596</dc:date>
    <dc:format>image/svg+xml</dc:format>
    <dc:creator>
     <cc:Agent>
      <dc:title>Matplotlib v3.6.0, https://matplotlib.org/</dc:title>
     </cc:Agent>
    </dc:creator>
   </cc:Work>
  </rdf:RDF>
 </metadata>
 <defs>
  <style type="text/css">*{stroke-linejoin: round; stroke-linecap: butt}</style>
 </defs>
 <g id="figure_1">
  <g id="patch_1">
   <path d="M 0 345.6 
L 460.8 345.6 
L 460.8 0 
L 0 0 
z
" style="fill: #ffffff"/>
  </g>
  <g id="axes_1">
   <g id="patch_2">
    <path d="M 57.6 307.584 
L 414.72 307.584 
L 414.72 41.472 
L 57.6 41.472 
z
" style="fill: #ffffff"/>
   </g>
   <g id="patch_3">
    <path d="M 236.739106 234.561672 
C 257.947257 234.561672 278.289632 228.282878 293.286059 217.108121 
C 308.282486 205.933363 316.708574 190.775013 316.708574 174.97152 
C 316.708574 159.168027 308.282486 144.009677 293.286059 132.834919 
C 278.289632 121.660162 257.947257 115.381368 236.739106 115.381368 
C 215.530955 115.381368 195.18858 121.660162 180.192153 132.834919 
C 165.195726 144.009677 156.769638 159.168027 156.769638 174.97152 
C 156.769638 190.775013 165.195726 205.933363 180.192153 217.108121 
C 195.18858 228.282878 215.530955 234.561672 236.739106 234.561672 
L 236.739106 234.561672 
z
" clip-path="url(#pc1053ff3e5)" style="fill: none; stroke: #000000; stroke-linejoin: miter"/>
   </g>
   <g id="matplotlib.axis_1">
    <g id="xtick_1">
     <g id="line2d_1">
      <defs>
       <path id="mf51968748c" d="M 0 0 
L 0 3.5 
" style="stroke: #000000; stroke-width: 0.8"/>
      </defs>
      <g>
       <use xlink:href="#mf51968748c" x="57.6" y="307.584" style="stroke: #000000; stroke-width: 0.8"/>
      </g>
     </g>
     <g id="text_1">
      <!-- −300 -->
      <g transform="translate(43.866406 322.182437) scale(0.1 -0.1)">
       <defs>
        <path id="DejaVuSans-2212" d="M 678 2272 
L 4684 2272 
L 4684 1741 
L 678 1741 
L 678 2272 
z
" transform="scale(0.015625)"/>
        <path id="DejaVuSans-33" d="M 2597 2516 
Q 3050 2419 3304 2112 
Q 3559 1806 3559 1356 
Q 3559 666 3084 287 
Q 2609 -91 1734 -91 
Q 1441 -91 1130 -33 
Q 819 25 488 141 
L 488 750 
Q 750 597 1062 519 
Q 1375 441 1716 441 
Q 2309 441 2620 675 
Q 2931 909 2931 1356 
Q 2931 1769 2642 2001 
Q 2353 2234 1838 2234 
L 1294 2234 
L 1294 2753 
L 1863 2753 
Q 2328 2753 2575 2939 
Q 2822 3125 2822 3475 
Q 2822 3834 2567 4026 
Q 2313 4219 1838 4219 
Q 1578 4219 1281 4162 
Q 984 4106 628 3988 
L 628 4550 
Q 988 4650 1302 4700 
Q 1616 4750 1894 4750 
Q 2613 4750 3031 4423 
Q 3450 4097 3450 3541 
Q 3450 3153 3228 2886 
Q 3006 2619 2597 2516 
z
" transform="scale(0.015625)"/>
        <path id="DejaVuSans-30" d="M 2034 4250 
Q 1547 4250 1301 3770 
Q 1056 3291 1056 2328 
Q 1056 1369 1301 889 
Q 1547 409 2034 409 
Q 2525 409 2770 889 
Q 3016 1369 3016 2328 
Q 3016 3291 2770 3770 
Q 2525 4250 2034 4250 
z
M 2034 4750 
Q 2819 4750 3233 4129 
Q 3647 3509 3647 2328 
Q 3647 1150 3233 529 
Q 2819 -91 2034 -91 
Q 1250 -91 836 529 
Q 422 1150 422 2328 
Q 422 3509 836 4129 
Q 1250 4750 2034 4750 
z
" transform="scale(0.015625)"/>
       </defs>
       <use xlink:href="#DejaVuSans-2212"/>
       <use xlink:href="#DejaVuSans-33" x="83.789062"/>
       <use xlink:href="#DejaVuSans-30" x="147.412109"/>
       <use xlink:href="#DejaVuSans-30" x="211.035156"/>
      </g>
     </g>
    </g>
    <g id="xtick_2">
     <g id="line2d_2">
      <g>
       <use xlink:href="#mf51968748c" x="117.12" y="307.584" style="stroke: #000000; stroke-width: 0.8"/>
      </g>
     </g>
     <g id="text_2">
      <!-- −200 -->
      <g transform="translate(103.386406 322.182437) scale(0.1 -0.1)">
       <defs>
        <path id="DejaVuSans-32" d="M 1228 531 
L 3431 531 
L 3431 0 
L 469 0 
L 469 531 
Q 828 903 1448 1529 
Q 2069 2156 2228 2338 
Q 2531 2678 2651 2914 
Q 2772 3150 2772 3378 
Q 2772 3750 2511 3984 
Q 2250 4219 1831 4219 
Q 1534 4219 1204 4116 
Q 875 4013 500 3803 
L 500 4441 
Q 881 4594 1212 4672 
Q 1544 4750 1819 4750 
Q 2544 4750 2975 4387 
Q 3406 4025 3406 3419 
Q 3406 3131 3298 2873 
Q 3191 2616 2906 2266 
Q 2828 2175 2409 1742 
Q 1991 1309 1228 531 
z
" transform="scale(0.015625)"/>
       </defs>
       <use xlink:href="#DejaVuSans-2212"/>
       <use xlink:href="#DejaVuSans-32" x="83.789062"/>
       <use xlink:href="#DejaVuSans-30" x="147.412109"/>
       <use xlink:href="#DejaVuSans-30" x="211.035156"/>
      </g>
     </g>
    </g>
    <g id="xtick_3">
     <g id="line2d_3">
      <g>
       <use xlink:href="#mf51968748c" x="176.64" y="307.584" style="stroke: #000000; stroke-width: 0.8"/>
      </g>
     </g>
     <g id="text_3">
      <!-- −100 -->
      <g transform="translate(162.906406 322.182437) scale(0.1 -0.1)">
       <defs>
        <path id="DejaVuSans-31" d="M 794 531 
L 1825 531 
L 1825 4091 
L 703 3866 
L 703 4441 
L 1819 4666 
L 2450 4666 
L 2450 531 
L 3481 531 
L 3481 0 
L 794 0 
L 794 531 
z
" transform="scale(0.015625)"/>
       </defs>
       <use xlink:href="#DejaVuSans-2212"/>
       <use xlink:href="#DejaVuSans-31" x="83.789062"/>
       <use xlink:href="#DejaVuSans-30" x="147.412109"/>
       <use xlink:href="#DejaVuSans-30" x="211.035156"/>
      </g>
     </g>
    </g>
    <g id="xtick_4">
     <g id="line2d_4">
      <g>
       <use xlink:href="#mf51968748c" x="236.16" y="307.584" style="stroke: #000000; stroke-width: 0.8"/>
      </g>
     </g>
     <g id="text_4">
      <!-- 0 -->
      <g transform="translate(232.97875 322.182437) scale(0.1 -0.1)">
       <use xlink:href="#DejaVuSans-30"/>
      </g>
     </g>
    </g>
    <g id="xtick_5">
     <g id="line2d_5">
      <g>
       <use xlink:href="#mf51968748c" x="295.68" y="307.584" style="stroke: #000000; stroke-width: 0.8"/>
      </g>
     </g>
     <g id="text_5">
      <!-- 100 -->
      <g transform="translate(286.13625 322.182437) scale(0.1 -0.1)">
       <use xlink:href="#DejaVuSans-31"/>
       <use xlink:href="#DejaVuSans-30" x="63.623047"/>
       <use xlink:href="#DejaVuSans-30" x="127.246094"/>
      </g>
     </g>
    </g>
    <g id="xtick_6">
     <g id="line2d_6">
      <g>
       <use xlink:href="#mf51968748c" x="355.2" y="307.584" style="stroke: #000000; stroke-width: 0.8"/>
      </g>
     </g>
     <g id="text_6">
      <!-- 200 -->
      <g transform="translate(345.65625 322.182437) scale(0.1 -0.1)">
       <use xlink:href="#DejaVuSans-32"/>
       <use xlink:href="#DejaVuSans-30" x="63.623047"/>
       <use xlink:href="#DejaVuSans-30" x="127.246094"/>
      </g>
     </g>
    </g>
    <g id="xtick_7">
     <g id="line2d_7">
      <g>
       <use xlink:href="#mf51968748c" x="414.72" y="307.584" style="stroke: #000000; stroke-width: 0.8"/>
      </g>
     </g>
     <g id="text_7">
      <!-- 300 -->
      <g transform="translate(405.17625 322.182437) scale(0.1 -0.1)">
       <use xlink:href="#DejaVuSans-33"/>
       <use xlink:href="#DejaVuSans-30" x="63.623047"/>
       <use xlink:href="#DejaVuSans-30" x="127.246094"/>
      </g>
     </g>
    </g>
   </g>
   <g id="matplotlib.axis_2">
    <g id="ytick_1">
     <g id="line2d_8">
      <defs>
       <path id="m10a5499acf" d="M 0 0 
L -3.5 0 
" style="stroke: #000000; stroke-width: 0.8"/>
      </defs>
      <g>
       <use xlink:href="#m10a5499acf" x="57.6" y="307.584" style="stroke: #000000; stroke-width: 0.8"/>
      </g>
     </g>
     <g id="text_8">
      <!-- −300 -->
      <g transform="translate(23.132812 311.383219) scale(0.1 -0.1)">
       <use xlink:href="#DejaVuSans-2212"/>
       <use xlink:href="#DejaVuSans-33" x="83.789062"/>
       <use xlink:href="#DejaVuSans-30" x="147.412109"/>
       <use xlink:href="#DejaVuSans-30" x="211.035156"/>
      </g>
     </g>
    </g>
    <g id="ytick_2">
     <g id="line2d_9">
      <g>
       <use xlink:href="#m10a5499acf" x="57.6" y="263.232" style="stroke: #000000; stroke-width: 0.8"/>
      </g>
     </g>
     <g id="text_9">
      <!-- −200 -->
      <g transform="translate(23.132812 267.031219) scale(0.1 -0.1)">
       <use xlink:href="#DejaVuSans-2212"/>
       <use xlink:href="#DejaVuSans-32" x="83.789062"/>
       <use xlink:href="#DejaVuSans-30" x="147.412109"/>
       <use xlink:href="#DejaVuSans-30" x="211.035156"/>
      </g>
     </g>
    </g>
    <g id="ytick_3">
     <g id="line2d_10">
      <g>
       <use xlink:href="#m10a5499acf" x="57.6" y="218.88" style="stroke: #000000; stroke-width: 0.8"/>
      </g>
     </g>
     <g id="text_10">
      <!-- −100 -->
      <g transform="translate(23.132812 222.679219) scale(0.1 -0.1)">
       <use xlink:href="#DejaVuSans-2212"/>
       <use xlink:href="#DejaVuSans-31" x="83.789062"/>
       <use xlink:href="#DejaVuSans-30" x="147.412109"/>
       <use xlink:href="#DejaVuSans-30" x="211.035156"/>
      </g>
     </g>
    </g>
    <g id="ytick_4">
     <g id="line2d_11">
      <g>
       <use xlink:href="#m10a5499acf" x="57.6" y="174.528" style="stroke: #000000; stroke-width: 0.8"/>
      </g>
     </g>
     <g id="text_11">
      <!-- 0 -->
      <g transform="translate(44.2375 178.327219) scale(0.1 -0.1)">
       <use xlink:href="#DejaVuSans-30"/>
      </g>
     </g>
    </g>
    <g id="ytick_5">
     <g id="line2d_12">
      <g>
       <use xlink:href="#m10a5499acf" x="57.6" y="130.176" style="stroke: #000000; stroke-width: 0.8"/>
      </g>
     </g>
     <g id="text_12">
      <!-- 100 -->
      <g transform="translate(31.5125 133.975219) scale(0.1 -0.1)">
       <use xlink:href="#DejaVuSans-31"/>
       <use xlink:href="#DejaVuSans-30" x="63.623047"/>
       <use xlink:href="#DejaVuSans-30" x="127.246094"/>
      </g>
     </g>
    </g>
    <g id="ytick_6">
     <g id="line2d_13">
      <g>
       <use xlink:href="#m10a5499acf" x="57.6" y="85.824" style="stroke: #000000; stroke-width: 0.8"/>
      </g>
     </g>
     <g id="text_13">
      <!-- 200 -->
      <g transform="translate(31.5125 89.623219) scale(0.1 -0.1)">
       <use xlink:href="#DejaVuSans-32"/>
       <use xlink:href="#DejaVuSans-30" x="63.623047"/>
       <use xlink:href="#DejaVuSans-30" x="127.246094"/>
      </g>
     </g>
    </g>
    <g id="ytick_7">
     <g id="line2d_14">
      <g>
       <use xlink:href="#m10a5499acf" x="57.6" y="41.472" style="stroke: #000000; stroke-width: 0.8"/>
      </g>
     </g>
     <g id="text_14">
      <!-- 300 -->
      <g transform="translate(31.5125 45.271219) scale(0.1 -0.1)">
       <use xlink:href="#DejaVuSans-33"/>
       <use xlink:href="#DejaVuSans-30" x="63.623047"/>
       <use xlink:href="#DejaVuSans-30" x="127.246094"/>
      </g>
     </g>
    </g>
   </g>
   <g id="line2d_15">
    <defs>
     <path id="med03a3d834" d="M 0 1.5 
C 0.397805 1.5 0.77937 1.341951 1.06066 1.06066 
C 1.341951 0.77937 1.5 0.397805 1.5 0 
C 1.5 -0.397805 1.341951 -0.77937 1.06066 -1.06066 
C 0.77937 -1.341951 0.397805 -1.5 0 -1.5 
C -0.397805 -1.5 -0.77937 -1.341951 -1.06066 -1.06066 
C -1.341951 -0.77937 -1.5 -0.397805 -1.5 0 
C -1.5 0.397805 -1.341951 0.77937 -1.06066 1.06066 
C -0.77937 1.341951 -0.397805 1.5 0 1.5 
z
" style="stroke: #000000"/>
    </defs>
    <g clip-path="url(#pc1053ff3e5)">
     <use xlink:href="#med03a3d834" x="156.9984" y="174.528" style="stroke: #000000"/>
     <use xlink:href="#med03a3d834" x="156.9984" y="175.41504" style="stroke: #000000"/>
     <use xlink:href="#med03a3d834" x="156.9984" y="176.7456" style="stroke: #000000"/>
     <use xlink:href="#med03a3d834" x="156.9984" y="177.63264" style="stroke: #000000"/>
     <use xlink:href="#med03a3d834" x="156.9984" y="178.51968" style="stroke: #000000"/>
     <use xlink:href="#med03a3d834" x="157.5936" y="179.85024" style="stroke: #000000"/>
     <use xlink:href="#med03a3d834" x="157.5936" y="180.73728" style="stroke: #000000"/>
     <use xlink:href="#med03a3d834" x="157.5936" y="181.62432" style="stroke: #000000"/>
     <use xlink:href="#med03a3d834" x="157.5936" y="182.51136" style="stroke: #000000"/>
     <use xlink:href="#med03a3d834" x="158.1888" y="183.84192" style="stroke: #000000"/>
     <use xlink:href="#med03a3d834" x="158.1888" y="184.72896" style="stroke: #000000"/>
     <use xlink:href="#med03a3d834" x="158.784" y="185.616" style="stroke: #000000"/>
     <use xlink:href="#med03a3d834" x="158.1888" y="186.94656" style="stroke: #000000"/>
     <use xlink:href="#med03a3d834" x="158.784" y="187.8336" style="stroke: #000000"/>
     <use xlink:href="#med03a3d834" x="159.3792" y="188.72064" style="stroke: #000000"/>
     <use xlink:href="#med03a3d834" x="159.3792" y="190.0512" style="stroke: #000000"/>
     <use xlink:href="#med03a3d834" x="159.3792" y="190.93824" style="stroke: #000000"/>
     <use xlink:href="#med03a3d834" x="158.784" y="192.2688" style="stroke: #000000"/>
     <use xlink:href="#med03a3d834" x="161.1648" y="192.71232" style="stroke: #000000"/>
     <use xlink:href="#med03a3d834" x="161.1648" y="193.59936" style="stroke: #000000"/>
     <use xlink:href="#med03a3d834" x="161.1648" y="194.92992" style="stroke: #000000"/>
     <use xlink:href="#med03a3d834" x="161.76" y="195.81696" style="stroke: #000000"/>
     <use xlink:href="#med03a3d834" x="162.3552" y="196.704" style="stroke: #000000"/>
     <use xlink:href="#med03a3d834" x="162.9504" y="197.59104" style="stroke: #000000"/>
     <use xlink:href="#med03a3d834" x="162.9504" y="198.9216" style="stroke: #000000"/>
     <use xlink:href="#med03a3d834" x="164.736" y="199.36512" style="stroke: #000000"/>
     <use xlink:href="#med03a3d834" x="164.736" y="200.69568" style="stroke: #000000"/>
     <use xlink:href="#med03a3d834" x="165.3312" y="201.58272" style="stroke: #000000"/>
     <use xlink:href="#med03a3d834" x="165.9264" y="202.46976" style="stroke: #000000"/>
     <use xlink:href="#med03a3d834" x="166.5216" y="203.3568" style="stroke: #000000"/>
     <use xlink:href="#med03a3d834" x="167.1168" y="204.24384" style="stroke: #000000"/>
     <use xlink:href="#med03a3d834" x="167.712" y="205.13088" style="stroke: #000000"/>
     <use xlink:href="#med03a3d834" x="168.3072" y="206.01792" style="stroke: #000000"/>
     <use xlink:href="#med03a3d834" x="169.4976" y="206.90496" style="stroke: #000000"/>
     <use xlink:href="#med03a3d834" x="170.0928" y="207.792" style="stroke: #000000"/>
     <use xlink:href="#med03a3d834" x="171.2832" y="208.23552" style="stroke: #000000"/>
     <use xlink:href="#med03a3d834" x="171.8784" y="209.12256" style="stroke: #000000"/>
     <use xlink:href="#med03a3d834" x="171.8784" y="210.45312" style="stroke: #000000"/>
     <use xlink:href="#med03a3d834" x="173.664" y="210.89664" style="stroke: #000000"/>
     <use xlink:href="#med03a3d834" x="174.2592" y="211.78368" style="stroke: #000000"/>
     <use xlink:href="#med03a3d834" x="175.4496" y="212.2272" style="stroke: #000000"/>
     <use xlink:href="#med03a3d834" x="176.0448" y="213.55776" style="stroke: #000000"/>
     <use xlink:href="#med03a3d834" x="177.2352" y="214.00128" style="stroke: #000000"/>
     <use xlink:href="#med03a3d834" x="178.4256" y="214.88832" style="stroke: #000000"/>
     <use xlink:href="#med03a3d834" x="179.0208" y="215.33184" style="stroke: #000000"/>
     <use xlink:href="#med03a3d834" x="179.616" y="216.6624" style="stroke: #000000"/>
     <use xlink:href="#med03a3d834" x="181.4016" y="217.10592" style="stroke: #000000"/>
     <use xlink:href="#med03a3d834" x="181.9968" y="217.54944" style="stroke: #000000"/>
     <use xlink:href="#med03a3d834" x="183.1872" y="218.43648" style="stroke: #000000"/>
     <use xlink:href="#med03a3d834" x="183.7824" y="219.32352" style="stroke: #000000"/>
     <use xlink:href="#med03a3d834" x="184.9728" y="220.21056" style="stroke: #000000"/>
     <use xlink:href="#med03a3d834" x="186.1632" y="220.65408" style="stroke: #000000"/>
     <use xlink:href="#med03a3d834" x="187.3536" y="221.0976" style="stroke: #000000"/>
     <use xlink:href="#med03a3d834" x="188.544" y="221.54112" style="stroke: #000000"/>
     <use xlink:href="#med03a3d834" x="189.1392" y="222.42816" style="stroke: #000000"/>
     <use xlink:href="#med03a3d834" x="190.3296" y="223.75872" style="stroke: #000000"/>
     <use xlink:href="#med03a3d834" x="191.52" y="224.20224" style="stroke: #000000"/>
     <use xlink:href="#med03a3d834" x="192.1152" y="225.08928" style="stroke: #000000"/>
     <use xlink:href="#med03a3d834" x="193.3056" y="225.5328" style="stroke: #000000"/>
     <use xlink:href="#med03a3d834" x="195.0912" y="225.97632" style="stroke: #000000"/>
     <use xlink:href="#med03a3d834" x="196.2816" y="226.41984" style="stroke: #000000"/>
     <use xlink:href="#med03a3d834" x="197.472" y="226.41984" style="stroke: #000000"/>
     <use xlink:href="#med03a3d834" x="198.6624" y="226.86336" style="stroke: #000000"/>
     <use xlink:href="#med03a3d834" x="200.448" y="226.86336" style="stroke: #000000"/>
     <use xlink:href="#med03a3d834" x="201.6384" y="227.30688" style="stroke: #000000"/>
     <use xlink:href="#med03a3d834" x="203.424" y="226.86336" style="stroke: #000000"/>
     <use xlink:href="#med03a3d834" x="204.0192" y="228.63744" style="stroke: #000000"/>
     <use xlink:href="#med03a3d834" x="204.6144" y="230.41152" style="stroke: #000000"/>
     <use xlink:href="#med03a3d834" x="206.4" y="229.52448" style="stroke: #000000"/>
     <use xlink:href="#med03a3d834" x="207.5904" y="229.968" style="stroke: #000000"/>
     <use xlink:href="#med03a3d834" x="208.7808" y="230.41152" style="stroke: #000000"/>
     <use xlink:href="#med03a3d834" x="209.9712" y="230.85504" style="stroke: #000000"/>
     <use xlink:href="#med03a3d834" x="211.7568" y="230.85504" style="stroke: #000000"/>
     <use xlink:href="#med03a3d834" x="212.352" y="232.1856" style="stroke: #000000"/>
     <use xlink:href="#med03a3d834" x="214.1376" y="232.62912" style="stroke: #000000"/>
     <use xlink:href="#med03a3d834" x="215.328" y="232.1856" style="stroke: #000000"/>
     <use xlink:href="#med03a3d834" x="216.5184" y="232.62912" style="stroke: #000000"/>
     <use xlink:href="#med03a3d834" x="217.7088" y="233.07264" style="stroke: #000000"/>
     <use xlink:href="#med03a3d834" x="219.4944" y="232.62912" style="stroke: #000000"/>
     <use xlink:href="#med03a3d834" x="220.6848" y="232.62912" style="stroke: #000000"/>
     <use xlink:href="#med03a3d834" x="222.4704" y="233.51616" style="stroke: #000000"/>
     <use xlink:href="#med03a3d834" x="223.6608" y="233.07264" style="stroke: #000000"/>
     <use xlink:href="#med03a3d834" x="225.4464" y="233.07264" style="stroke: #000000"/>
     <use xlink:href="#med03a3d834" x="226.0416" y="234.84672" style="stroke: #000000"/>
     <use xlink:href="#med03a3d834" x="227.8272" y="233.51616" style="stroke: #000000"/>
     <use xlink:href="#med03a3d834" x="229.6128" y="232.62912" style="stroke: #000000"/>
     <use xlink:href="#med03a3d834" x="230.8032" y="233.51616" style="stroke: #000000"/>
     <use xlink:href="#med03a3d834" x="231.9936" y="233.51616" style="stroke: #000000"/>
     <use xlink:href="#med03a3d834" x="233.184" y="233.51616" style="stroke: #000000"/>
     <use xlink:href="#med03a3d834" x="234.9696" y="233.51616" style="stroke: #000000"/>
     <use xlink:href="#med03a3d834" x="236.16" y="233.51616" style="stroke: #000000"/>
     <use xlink:href="#med03a3d834" x="237.3504" y="233.51616" style="stroke: #000000"/>
     <use xlink:href="#med03a3d834" x="239.136" y="233.51616" style="stroke: #000000"/>
     <use xlink:href="#med03a3d834" x="240.3264" y="233.95968" style="stroke: #000000"/>
     <use xlink:href="#med03a3d834" x="241.5168" y="233.95968" style="stroke: #000000"/>
     <use xlink:href="#med03a3d834" x="243.3024" y="233.95968" style="stroke: #000000"/>
     <use xlink:href="#med03a3d834" x="251.6352" y="233.95968" style="stroke: #000000"/>
     <use xlink:href="#med03a3d834" x="252.8256" y="233.95968" style="stroke: #000000"/>
     <use xlink:href="#med03a3d834" x="254.6112" y="233.95968" style="stroke: #000000"/>
     <use xlink:href="#med03a3d834" x="255.8016" y="233.51616" style="stroke: #000000"/>
     <use xlink:href="#med03a3d834" x="257.5872" y="233.51616" style="stroke: #000000"/>
     <use xlink:href="#med03a3d834" x="258.7776" y="233.07264" style="stroke: #000000"/>
     <use xlink:href="#med03a3d834" x="259.968" y="232.62912" style="stroke: #000000"/>
     <use xlink:href="#med03a3d834" x="261.1584" y="232.1856" style="stroke: #000000"/>
     <use xlink:href="#med03a3d834" x="262.3488" y="231.29856" style="stroke: #000000"/>
     <use xlink:href="#med03a3d834" x="263.5392" y="230.41152" style="stroke: #000000"/>
     <use xlink:href="#med03a3d834" x="264.7296" y="229.968" style="stroke: #000000"/>
     <use xlink:href="#med03a3d834" x="266.5152" y="229.968" style="stroke: #000000"/>
     <use xlink:href="#med03a3d834" x="267.7056" y="229.968" style="stroke: #000000"/>
     <use xlink:href="#med03a3d834" x="269.4912" y="229.968" style="stroke: #000000"/>
     <use xlink:href="#med03a3d834" x="270.6816" y="229.968" style="stroke: #000000"/>
     <use xlink:href="#med03a3d834" x="271.872" y="229.08096" style="stroke: #000000"/>
     <use xlink:href="#med03a3d834" x="273.6576" y="229.08096" style="stroke: #000000"/>
     <use xlink:href="#med03a3d834" x="274.2528" y="228.19392" style="stroke: #000000"/>
     <use xlink:href="#med03a3d834" x="275.4432" y="227.30688" style="stroke: #000000"/>
     <use xlink:href="#med03a3d834" x="276.6336" y="227.30688" style="stroke: #000000"/>
     <use xlink:href="#med03a3d834" x="278.4192" y="226.41984" style="stroke: #000000"/>
     <use xlink:href="#med03a3d834" x="279.6096" y="225.97632" style="stroke: #000000"/>
     <use xlink:href="#med03a3d834" x="280.8" y="225.5328" style="stroke: #000000"/>
     <use xlink:href="#med03a3d834" x="281.9904" y="225.08928" style="stroke: #000000"/>
     <use xlink:href="#med03a3d834" x="282.5856" y="223.75872" style="stroke: #000000"/>
     <use xlink:href="#med03a3d834" x="283.776" y="223.3152" style="stroke: #000000"/>
     <use xlink:href="#med03a3d834" x="284.9664" y="222.87168" style="stroke: #000000"/>
     <use xlink:href="#med03a3d834" x="286.1568" y="221.98464" style="stroke: #000000"/>
     <use xlink:href="#med03a3d834" x="287.3472" y="221.54112" style="stroke: #000000"/>
     <use xlink:href="#med03a3d834" x="287.9424" y="220.65408" style="stroke: #000000"/>
     <use xlink:href="#med03a3d834" x="288.5376" y="219.32352" style="stroke: #000000"/>
     <use xlink:href="#med03a3d834" x="289.1328" y="218.43648" style="stroke: #000000"/>
     <use xlink:href="#med03a3d834" x="290.3232" y="217.99296" style="stroke: #000000"/>
     <use xlink:href="#med03a3d834" x="292.1088" y="217.54944" style="stroke: #000000"/>
     <use xlink:href="#med03a3d834" x="293.2992" y="217.10592" style="stroke: #000000"/>
     <use xlink:href="#med03a3d834" x="294.4896" y="216.21888" style="stroke: #000000"/>
     <use xlink:href="#med03a3d834" x="295.0848" y="215.33184" style="stroke: #000000"/>
     <use xlink:href="#med03a3d834" x="296.2752" y="214.88832" style="stroke: #000000"/>
     <use xlink:href="#med03a3d834" x="296.8704" y="214.00128" style="stroke: #000000"/>
     <use xlink:href="#med03a3d834" x="298.0608" y="213.11424" style="stroke: #000000"/>
     <use xlink:href="#med03a3d834" x="299.2512" y="212.67072" style="stroke: #000000"/>
     <use xlink:href="#med03a3d834" x="299.8464" y="211.78368" style="stroke: #000000"/>
     <use xlink:href="#med03a3d834" x="301.632" y="211.34016" style="stroke: #000000"/>
     <use xlink:href="#med03a3d834" x="303.4176" y="210.89664" style="stroke: #000000"/>
     <use xlink:href="#med03a3d834" x="303.4176" y="209.56608" style="stroke: #000000"/>
     <use xlink:href="#med03a3d834" x="304.608" y="208.23552" style="stroke: #000000"/>
     <use xlink:href="#med03a3d834" x="305.7984" y="207.792" style="stroke: #000000"/>
     <use xlink:href="#med03a3d834" x="306.3936" y="206.90496" style="stroke: #000000"/>
     <use xlink:href="#med03a3d834" x="306.9888" y="206.01792" style="stroke: #000000"/>
     <use xlink:href="#med03a3d834" x="307.584" y="204.68736" style="stroke: #000000"/>
     <use xlink:href="#med03a3d834" x="307.584" y="203.80032" style="stroke: #000000"/>
     <use xlink:href="#med03a3d834" x="307.584" y="202.91328" style="stroke: #000000"/>
     <use xlink:href="#med03a3d834" x="308.7744" y="201.58272" style="stroke: #000000"/>
     <use xlink:href="#med03a3d834" x="308.7744" y="201.1392" style="stroke: #000000"/>
     <use xlink:href="#med03a3d834" x="308.7744" y="199.80864" style="stroke: #000000"/>
     <use xlink:href="#med03a3d834" x="309.9648" y="198.47808" style="stroke: #000000"/>
     <use xlink:href="#med03a3d834" x="309.9648" y="198.03456" style="stroke: #000000"/>
     <use xlink:href="#med03a3d834" x="309.9648" y="196.704" style="stroke: #000000"/>
     <use xlink:href="#med03a3d834" x="310.56" y="195.81696" style="stroke: #000000"/>
     <use xlink:href="#med03a3d834" x="312.3456" y="194.4864" style="stroke: #000000"/>
     <use xlink:href="#med03a3d834" x="312.3456" y="194.04288" style="stroke: #000000"/>
     <use xlink:href="#med03a3d834" x="312.3456" y="193.15584" style="stroke: #000000"/>
     <use xlink:href="#med03a3d834" x="314.7264" y="191.82528" style="stroke: #000000"/>
     <use xlink:href="#med03a3d834" x="314.1312" y="191.38176" style="stroke: #000000"/>
     <use xlink:href="#med03a3d834" x="313.536" y="190.0512" style="stroke: #000000"/>
     <use xlink:href="#med03a3d834" x="314.1312" y="188.72064" style="stroke: #000000"/>
     <use xlink:href="#med03a3d834" x="314.7264" y="187.8336" style="stroke: #000000"/>
     <use xlink:href="#med03a3d834" x="314.7264" y="186.94656" style="stroke: #000000"/>
     <use xlink:href="#med03a3d834" x="315.3216" y="186.05952" style="stroke: #000000"/>
     <use xlink:href="#med03a3d834" x="315.3216" y="184.72896" style="stroke: #000000"/>
     <use xlink:href="#med03a3d834" x="315.9168" y="183.84192" style="stroke: #000000"/>
     <use xlink:href="#med03a3d834" x="315.9168" y="182.95488" style="stroke: #000000"/>
     <use xlink:href="#med03a3d834" x="316.512" y="181.62432" style="stroke: #000000"/>
     <use xlink:href="#med03a3d834" x="316.512" y="180.73728" style="stroke: #000000"/>
     <use xlink:href="#med03a3d834" x="317.1072" y="179.85024" style="stroke: #000000"/>
     <use xlink:href="#med03a3d834" x="317.7024" y="178.51968" style="stroke: #000000"/>
     <use xlink:href="#med03a3d834" x="317.7024" y="177.63264" style="stroke: #000000"/>
     <use xlink:href="#med03a3d834" x="317.1072" y="176.7456" style="stroke: #000000"/>
     <use xlink:href="#med03a3d834" x="318.2976" y="175.41504" style="stroke: #000000"/>
     <use xlink:href="#med03a3d834" x="318.2976" y="174.528" style="stroke: #000000"/>
     <use xlink:href="#med03a3d834" x="317.7024" y="173.64096" style="stroke: #000000"/>
     <use xlink:href="#med03a3d834" x="317.7024" y="172.3104" style="stroke: #000000"/>
     <use xlink:href="#med03a3d834" x="302.8224" y="171.42336" style="stroke: #000000"/>
     <use xlink:href="#med03a3d834" x="317.7024" y="166.98816" style="stroke: #000000"/>
     <use xlink:href="#med03a3d834" x="317.7024" y="166.10112" style="stroke: #000000"/>
     <use xlink:href="#med03a3d834" x="315.9168" y="165.21408" style="stroke: #000000"/>
     <use xlink:href="#med03a3d834" x="315.9168" y="163.88352" style="stroke: #000000"/>
     <use xlink:href="#med03a3d834" x="315.3216" y="162.99648" style="stroke: #000000"/>
     <use xlink:href="#med03a3d834" x="315.3216" y="162.10944" style="stroke: #000000"/>
     <use xlink:href="#med03a3d834" x="315.3216" y="160.77888" style="stroke: #000000"/>
     <use xlink:href="#med03a3d834" x="314.7264" y="159.89184" style="stroke: #000000"/>
     <use xlink:href="#med03a3d834" x="312.9408" y="159.0048" style="stroke: #000000"/>
     <use xlink:href="#med03a3d834" x="312.3456" y="158.11776" style="stroke: #000000"/>
     <use xlink:href="#med03a3d834" x="312.3456" y="157.23072" style="stroke: #000000"/>
     <use xlink:href="#med03a3d834" x="312.3456" y="155.90016" style="stroke: #000000"/>
     <use xlink:href="#med03a3d834" x="312.9408" y="154.5696" style="stroke: #000000"/>
     <use xlink:href="#med03a3d834" x="309.9648" y="154.5696" style="stroke: #000000"/>
     <use xlink:href="#med03a3d834" x="309.9648" y="153.23904" style="stroke: #000000"/>
     <use xlink:href="#med03a3d834" x="309.9648" y="152.352" style="stroke: #000000"/>
     <use xlink:href="#med03a3d834" x="309.9648" y="151.02144" style="stroke: #000000"/>
     <use xlink:href="#med03a3d834" x="309.3696" y="150.1344" style="stroke: #000000"/>
     <use xlink:href="#med03a3d834" x="309.3696" y="149.24736" style="stroke: #000000"/>
     <use xlink:href="#med03a3d834" x="309.3696" y="147.9168" style="stroke: #000000"/>
     <use xlink:href="#med03a3d834" x="309.3696" y="146.58624" style="stroke: #000000"/>
     <use xlink:href="#med03a3d834" x="306.9888" y="146.58624" style="stroke: #000000"/>
     <use xlink:href="#med03a3d834" x="305.7984" y="145.6992" style="stroke: #000000"/>
     <use xlink:href="#med03a3d834" x="304.608" y="145.25568" style="stroke: #000000"/>
     <use xlink:href="#med03a3d834" x="304.608" y="143.92512" style="stroke: #000000"/>
     <use xlink:href="#med03a3d834" x="304.608" y="142.59456" style="stroke: #000000"/>
     <use xlink:href="#med03a3d834" x="303.4176" y="142.15104" style="stroke: #000000"/>
     <use xlink:href="#med03a3d834" x="302.8224" y="141.264" style="stroke: #000000"/>
     <use xlink:href="#med03a3d834" x="302.2272" y="140.37696" style="stroke: #000000"/>
     <use xlink:href="#med03a3d834" x="299.8464" y="139.93344" style="stroke: #000000"/>
     <use xlink:href="#med03a3d834" x="299.8464" y="138.60288" style="stroke: #000000"/>
     <use xlink:href="#med03a3d834" x="299.2512" y="137.71584" style="stroke: #000000"/>
     <use xlink:href="#med03a3d834" x="298.0608" y="137.27232" style="stroke: #000000"/>
     <use xlink:href="#med03a3d834" x="297.4656" y="136.38528" style="stroke: #000000"/>
     <use xlink:href="#med03a3d834" x="296.8704" y="135.05472" style="stroke: #000000"/>
     <use xlink:href="#med03a3d834" x="295.68" y="134.6112" style="stroke: #000000"/>
     <use xlink:href="#med03a3d834" x="295.0848" y="133.72416" style="stroke: #000000"/>
     <use xlink:href="#med03a3d834" x="293.8944" y="132.83712" style="stroke: #000000"/>
     <use xlink:href="#med03a3d834" x="292.704" y="132.3936" style="stroke: #000000"/>
     <use xlink:href="#med03a3d834" x="292.1088" y="131.50656" style="stroke: #000000"/>
     <use xlink:href="#med03a3d834" x="290.3232" y="131.06304" style="stroke: #000000"/>
     <use xlink:href="#med03a3d834" x="289.728" y="130.176" style="stroke: #000000"/>
     <use xlink:href="#med03a3d834" x="287.9424" y="130.176" style="stroke: #000000"/>
     <use xlink:href="#med03a3d834" x="287.3472" y="128.84544" style="stroke: #000000"/>
     <use xlink:href="#med03a3d834" x="286.1568" y="128.40192" style="stroke: #000000"/>
     <use xlink:href="#med03a3d834" x="284.9664" y="127.51488" style="stroke: #000000"/>
     <use xlink:href="#med03a3d834" x="283.1808" y="127.9584" style="stroke: #000000"/>
     <use xlink:href="#med03a3d834" x="282.5856" y="126.62784" style="stroke: #000000"/>
     <use xlink:href="#med03a3d834" x="281.3952" y="126.18432" style="stroke: #000000"/>
     <use xlink:href="#med03a3d834" x="280.2048" y="126.18432" style="stroke: #000000"/>
     <use xlink:href="#med03a3d834" x="279.6096" y="124.85376" style="stroke: #000000"/>
     <use xlink:href="#med03a3d834" x="278.4192" y="123.96672" style="stroke: #000000"/>
     <use xlink:href="#med03a3d834" x="277.2288" y="123.5232" style="stroke: #000000"/>
     <use xlink:href="#med03a3d834" x="275.4432" y="123.5232" style="stroke: #000000"/>
     <use xlink:href="#med03a3d834" x="274.2528" y="123.07968" style="stroke: #000000"/>
     <use xlink:href="#med03a3d834" x="273.0624" y="122.63616" style="stroke: #000000"/>
     <use xlink:href="#med03a3d834" x="271.872" y="122.19264" style="stroke: #000000"/>
     <use xlink:href="#med03a3d834" x="270.6816" y="121.74912" style="stroke: #000000"/>
     <use xlink:href="#med03a3d834" x="269.4912" y="121.3056" style="stroke: #000000"/>
     <use xlink:href="#med03a3d834" x="267.7056" y="121.3056" style="stroke: #000000"/>
     <use xlink:href="#med03a3d834" x="267.1104" y="120.86208" style="stroke: #000000"/>
     <use xlink:href="#med03a3d834" x="265.92" y="119.97504" style="stroke: #000000"/>
     <use xlink:href="#med03a3d834" x="264.7296" y="119.53152" style="stroke: #000000"/>
     <use xlink:href="#med03a3d834" x="262.944" y="119.97504" style="stroke: #000000"/>
     <use xlink:href="#med03a3d834" x="261.7536" y="119.088" style="stroke: #000000"/>
     <use xlink:href="#med03a3d834" x="260.5632" y="119.088" style="stroke: #000000"/>
     <use xlink:href="#med03a3d834" x="259.3728" y="118.20096" style="stroke: #000000"/>
     <use xlink:href="#med03a3d834" x="258.1824" y="117.31392" style="stroke: #000000"/>
     <use xlink:href="#med03a3d834" x="256.992" y="117.31392" style="stroke: #000000"/>
     <use xlink:href="#med03a3d834" x="255.8016" y="116.42688" style="stroke: #000000"/>
     <use xlink:href="#med03a3d834" x="254.016" y="116.42688" style="stroke: #000000"/>
     <use xlink:href="#med03a3d834" x="252.8256" y="116.42688" style="stroke: #000000"/>
     <use xlink:href="#med03a3d834" x="251.6352" y="116.42688" style="stroke: #000000"/>
     <use xlink:href="#med03a3d834" x="250.4448" y="115.09632" style="stroke: #000000"/>
     <use xlink:href="#med03a3d834" x="248.6592" y="116.42688" style="stroke: #000000"/>
     <use xlink:href="#med03a3d834" x="246.8736" y="115.98336" style="stroke: #000000"/>
     <use xlink:href="#med03a3d834" x="245.6832" y="115.98336" style="stroke: #000000"/>
     <use xlink:href="#med03a3d834" x="244.4928" y="115.53984" style="stroke: #000000"/>
     <use xlink:href="#med03a3d834" x="243.3024" y="115.53984" style="stroke: #000000"/>
     <use xlink:href="#med03a3d834" x="241.5168" y="115.53984" style="stroke: #000000"/>
     <use xlink:href="#med03a3d834" x="240.3264" y="115.53984" style="stroke: #000000"/>
     <use xlink:href="#med03a3d834" x="239.136" y="115.53984" style="stroke: #000000"/>
     <use xlink:href="#med03a3d834" x="237.3504" y="115.09632" style="stroke: #000000"/>
     <use xlink:href="#med03a3d834" x="236.16" y="115.09632" style="stroke: #000000"/>
     <use xlink:href="#med03a3d834" x="234.9696" y="115.09632" style="stroke: #000000"/>
     <use xlink:href="#med03a3d834" x="233.184" y="115.09632" style="stroke: #000000"/>
     <use xlink:href="#med03a3d834" x="231.9936" y="115.09632" style="stroke: #000000"/>
     <use xlink:href="#med03a3d834" x="230.8032" y="115.09632" style="stroke: #000000"/>
     <use xlink:href="#med03a3d834" x="229.0176" y="114.6528" style="stroke: #000000"/>
     <use xlink:href="#med03a3d834" x="227.8272" y="115.09632" style="stroke: #000000"/>
     <use xlink:href="#med03a3d834" x="226.0416" y="114.6528" style="stroke: #000000"/>
     <use xlink:href="#med03a3d834" x="224.8512" y="115.09632" style="stroke: #000000"/>
     <use xlink:href="#med03a3d834" x="223.6608" y="115.09632" style="stroke: #000000"/>
     <use xlink:href="#med03a3d834" x="222.4704" y="115.53984" style="stroke: #000000"/>
     <use xlink:href="#med03a3d834" x="220.6848" y="115.98336" style="stroke: #000000"/>
     <use xlink:href="#med03a3d834" x="219.4944" y="116.8704" style="stroke: #000000"/>
     <use xlink:href="#med03a3d834" x="218.304" y="116.8704" style="stroke: #000000"/>
     <use xlink:href="#med03a3d834" x="217.1136" y="117.31392" style="stroke: #000000"/>
     <use xlink:href="#med03a3d834" x="215.328" y="117.31392" style="stroke: #000000"/>
     <use xlink:href="#med03a3d834" x="214.1376" y="117.31392" style="stroke: #000000"/>
     <use xlink:href="#med03a3d834" x="212.9472" y="117.31392" style="stroke: #000000"/>
     <use xlink:href="#med03a3d834" x="211.1616" y="117.31392" style="stroke: #000000"/>
     <use xlink:href="#med03a3d834" x="209.9712" y="118.20096" style="stroke: #000000"/>
     <use xlink:href="#med03a3d834" x="209.376" y="119.53152" style="stroke: #000000"/>
     <use xlink:href="#med03a3d834" x="207.5904" y="119.53152" style="stroke: #000000"/>
     <use xlink:href="#med03a3d834" x="206.4" y="119.97504" style="stroke: #000000"/>
     <use xlink:href="#med03a3d834" x="205.2096" y="119.97504" style="stroke: #000000"/>
     <use xlink:href="#med03a3d834" x="204.0192" y="120.41856" style="stroke: #000000"/>
     <use xlink:href="#med03a3d834" x="202.2336" y="120.86208" style="stroke: #000000"/>
     <use xlink:href="#med03a3d834" x="201.0432" y="121.3056" style="stroke: #000000"/>
     <use xlink:href="#med03a3d834" x="200.448" y="122.19264" style="stroke: #000000"/>
     <use xlink:href="#med03a3d834" x="198.6624" y="122.19264" style="stroke: #000000"/>
     <use xlink:href="#med03a3d834" x="198.0672" y="123.07968" style="stroke: #000000"/>
     <use xlink:href="#med03a3d834" x="196.8768" y="123.96672" style="stroke: #000000"/>
     <use xlink:href="#med03a3d834" x="195.6864" y="124.41024" style="stroke: #000000"/>
     <use xlink:href="#med03a3d834" x="194.496" y="124.85376" style="stroke: #000000"/>
     <use xlink:href="#med03a3d834" x="193.3056" y="125.29728" style="stroke: #000000"/>
     <use xlink:href="#med03a3d834" x="192.1152" y="126.18432" style="stroke: #000000"/>
     <use xlink:href="#med03a3d834" x="191.52" y="127.07136" style="stroke: #000000"/>
     <use xlink:href="#med03a3d834" x="190.3296" y="127.51488" style="stroke: #000000"/>
     <use xlink:href="#med03a3d834" x="189.1392" y="127.9584" style="stroke: #000000"/>
     <use xlink:href="#med03a3d834" x="187.9488" y="128.84544" style="stroke: #000000"/>
     <use xlink:href="#med03a3d834" x="187.3536" y="129.28896" style="stroke: #000000"/>
     <use xlink:href="#med03a3d834" x="185.568" y="129.28896" style="stroke: #000000"/>
     <use xlink:href="#med03a3d834" x="184.3776" y="130.176" style="stroke: #000000"/>
     <use xlink:href="#med03a3d834" x="183.7824" y="131.06304" style="stroke: #000000"/>
     <use xlink:href="#med03a3d834" x="182.592" y="131.95008" style="stroke: #000000"/>
     <use xlink:href="#med03a3d834" x="181.4016" y="132.3936" style="stroke: #000000"/>
     <use xlink:href="#med03a3d834" x="180.2112" y="132.83712" style="stroke: #000000"/>
     <use xlink:href="#med03a3d834" x="179.0208" y="133.72416" style="stroke: #000000"/>
     <use xlink:href="#med03a3d834" x="177.8304" y="134.16768" style="stroke: #000000"/>
     <use xlink:href="#med03a3d834" x="176.64" y="134.6112" style="stroke: #000000"/>
     <use xlink:href="#med03a3d834" x="176.0448" y="135.49824" style="stroke: #000000"/>
     <use xlink:href="#med03a3d834" x="174.8544" y="136.38528" style="stroke: #000000"/>
     <use xlink:href="#med03a3d834" x="174.2592" y="137.27232" style="stroke: #000000"/>
     <use xlink:href="#med03a3d834" x="173.664" y="138.15936" style="stroke: #000000"/>
     <use xlink:href="#med03a3d834" x="172.4736" y="138.60288" style="stroke: #000000"/>
     <use xlink:href="#med03a3d834" x="172.4736" y="139.93344" style="stroke: #000000"/>
     <use xlink:href="#med03a3d834" x="171.2832" y="140.82048" style="stroke: #000000"/>
     <use xlink:href="#med03a3d834" x="169.4976" y="141.264" style="stroke: #000000"/>
     <use xlink:href="#med03a3d834" x="168.9024" y="142.15104" style="stroke: #000000"/>
     <use xlink:href="#med03a3d834" x="168.3072" y="143.03808" style="stroke: #000000"/>
     <use xlink:href="#med03a3d834" x="167.1168" y="143.92512" style="stroke: #000000"/>
     <use xlink:href="#med03a3d834" x="166.5216" y="144.81216" style="stroke: #000000"/>
     <use xlink:href="#med03a3d834" x="165.9264" y="145.6992" style="stroke: #000000"/>
     <use xlink:href="#med03a3d834" x="165.9264" y="146.58624" style="stroke: #000000"/>
     <use xlink:href="#med03a3d834" x="164.736" y="147.47328" style="stroke: #000000"/>
     <use xlink:href="#med03a3d834" x="164.1408" y="148.36032" style="stroke: #000000"/>
     <use xlink:href="#med03a3d834" x="164.1408" y="149.24736" style="stroke: #000000"/>
     <use xlink:href="#med03a3d834" x="162.3552" y="150.1344" style="stroke: #000000"/>
     <use xlink:href="#med03a3d834" x="162.3552" y="151.02144" style="stroke: #000000"/>
     <use xlink:href="#med03a3d834" x="162.3552" y="152.352" style="stroke: #000000"/>
     <use xlink:href="#med03a3d834" x="160.5696" y="152.79552" style="stroke: #000000"/>
     <use xlink:href="#med03a3d834" x="160.5696" y="154.12608" style="stroke: #000000"/>
     <use xlink:href="#med03a3d834" x="160.5696" y="155.01312" style="stroke: #000000"/>
     <use xlink:href="#med03a3d834" x="159.3792" y="155.90016" style="stroke: #000000"/>
     <use xlink:href="#med03a3d834" x="159.3792" y="157.23072" style="stroke: #000000"/>
     <use xlink:href="#med03a3d834" x="159.3792" y="158.11776" style="stroke: #000000"/>
     <use xlink:href="#med03a3d834" x="159.3792" y="159.0048" style="stroke: #000000"/>
     <use xlink:href="#med03a3d834" x="158.784" y="160.33536" style="stroke: #000000"/>
     <use xlink:href="#med03a3d834" x="158.784" y="161.2224" style="stroke: #000000"/>
     <use xlink:href="#med03a3d834" x="158.784" y="162.10944" style="stroke: #000000"/>
     <use xlink:href="#med03a3d834" x="158.1888" y="162.99648" style="stroke: #000000"/>
     <use xlink:href="#med03a3d834" x="158.1888" y="164.32704" style="stroke: #000000"/>
     <use xlink:href="#med03a3d834" x="157.5936" y="165.21408" style="stroke: #000000"/>
     <use xlink:href="#med03a3d834" x="156.4032" y="166.10112" style="stroke: #000000"/>
     <use xlink:href="#med03a3d834" x="156.4032" y="167.43168" style="stroke: #000000"/>
     <use xlink:href="#med03a3d834" x="156.4032" y="168.31872" style="stroke: #000000"/>
     <use xlink:href="#med03a3d834" x="156.4032" y="169.20576" style="stroke: #000000"/>
     <use xlink:href="#med03a3d834" x="156.4032" y="170.53632" style="stroke: #000000"/>
     <use xlink:href="#med03a3d834" x="156.4032" y="171.42336" style="stroke: #000000"/>
     <use xlink:href="#med03a3d834" x="156.4032" y="172.3104" style="stroke: #000000"/>
     <use xlink:href="#med03a3d834" x="156.4032" y="173.64096" style="stroke: #000000"/>
    </g>
   </g>
   <g id="patch_4">
    <path d="M 57.6 307.584 
L 57.6 41.472 
" style="fill: none; stroke: #000000; stroke-width: 0.8; stroke-linejoin: miter; stroke-linecap: square"/>
   </g>
   <g id="patch_5">
    <path d="M 414.72 307.584 
L 414.72 41.472 
" style="fill: none; stroke: #000000; stroke-width: 0.8; stroke-linejoin: miter; stroke-linecap: square"/>
   </g>
   <g id="patch_6">
    <path d="M 57.6 307.584 
L 414.72 307.584 
" style="fill: none; stroke: #000000; stroke-width: 0.8; stroke-linejoin: miter; stroke-linecap: square"/>
   </g>
   <g id="patch_7">
    <path d="M 57.6 41.472 
L 414.72 41.472 
" style="fill: none; stroke: #000000; stroke-width: 0.8; stroke-linejoin: miter; stroke-linecap: square"/>
   </g>
   <g id="text_15">
    <!-- Circle Fit -->
    <g transform="translate(210.372187 35.472) scale(0.12 -0.12)">
     <defs>
      <path id="DejaVuSans-43" d="M 4122 4306 
L 4122 3641 
Q 3803 3938 3442 4084 
Q 3081 4231 2675 4231 
Q 1875 4231 1450 3742 
Q 1025 3253 1025 2328 
Q 1025 1406 1450 917 
Q 1875 428 2675 428 
Q 3081 428 3442 575 
Q 3803 722 4122 1019 
L 4122 359 
Q 3791 134 3420 21 
Q 3050 -91 2638 -91 
Q 1578 -91 968 557 
Q 359 1206 359 2328 
Q 359 3453 968 4101 
Q 1578 4750 2638 4750 
Q 3056 4750 3426 4639 
Q 3797 4528 4122 4306 
z
" transform="scale(0.015625)"/>
      <path id="DejaVuSans-69" d="M 603 3500 
L 1178 3500 
L 1178 0 
L 603 0 
L 603 3500 
z
M 603 4863 
L 1178 4863 
L 1178 4134 
L 603 4134 
L 603 4863 
z
" transform="scale(0.015625)"/>
      <path id="DejaVuSans-72" d="M 2631 2963 
Q 2534 3019 2420 3045 
Q 2306 3072 2169 3072 
Q 1681 3072 1420 2755 
Q 1159 2438 1159 1844 
L 1159 0 
L 581 0 
L 581 3500 
L 1159 3500 
L 1159 2956 
Q 1341 3275 1631 3429 
Q 1922 3584 2338 3584 
Q 2397 3584 2469 3576 
Q 2541 3569 2628 3553 
L 2631 2963 
z
" transform="scale(0.015625)"/>
      <path id="DejaVuSans-63" d="M 3122 3366 
L 3122 2828 
Q 2878 2963 2633 3030 
Q 2388 3097 2138 3097 
Q 1578 3097 1268 2742 
Q 959 2388 959 1747 
Q 959 1106 1268 751 
Q 1578 397 2138 397 
Q 2388 397 2633 464 
Q 2878 531 3122 666 
L 3122 134 
Q 2881 22 2623 -34 
Q 2366 -91 2075 -91 
Q 1284 -91 818 406 
Q 353 903 353 1747 
Q 353 2603 823 3093 
Q 1294 3584 2113 3584 
Q 2378 3584 2631 3529 
Q 2884 3475 3122 3366 
z
" transform="scale(0.015625)"/>
      <path id="DejaVuSans-6c" d="M 603 4863 
L 1178 4863 
L 1178 0 
L 603 0 
L 603 4863 
z
" transform="scale(0.015625)"/>
      <path id="DejaVuSans-65" d="M 3597 1894 
L 3597 1613 
L 953 1613 
Q 991 1019 1311 708 
Q 1631 397 2203 397 
Q 2534 397 2845 478 
Q 3156 559 3463 722 
L 3463 178 
Q 3153 47 2828 -22 
Q 2503 -91 2169 -91 
Q 1331 -91 842 396 
Q 353 884 353 1716 
Q 353 2575 817 3079 
Q 1281 3584 2069 3584 
Q 2775 3584 3186 3129 
Q 3597 2675 3597 1894 
z
M 3022 2063 
Q 3016 2534 2758 2815 
Q 2500 3097 2075 3097 
Q 1594 3097 1305 2825 
Q 1016 2553 972 2059 
L 3022 2063 
z
" transform="scale(0.015625)"/>
      <path id="DejaVuSans-20" transform="scale(0.015625)"/>
      <path id="DejaVuSans-46" d="M 628 4666 
L 3309 4666 
L 3309 4134 
L 1259 4134 
L 1259 2759 
L 3109 2759 
L 3109 2228 
L 1259 2228 
L 1259 0 
L 628 0 
L 628 4666 
z
" transform="scale(0.015625)"/>
      <path id="DejaVuSans-74" d="M 1172 4494 
L 1172 3500 
L 2356 3500 
L 2356 3053 
L 1172 3053 
L 1172 1153 
Q 1172 725 1289 603 
Q 1406 481 1766 481 
L 2356 481 
L 2356 0 
L 1766 0 
Q 1100 0 847 248 
Q 594 497 594 1153 
L 594 3053 
L 172 3053 
L 172 3500 
L 594 3500 
L 594 4494 
L 1172 4494 
z
" transform="scale(0.015625)"/>
     </defs>
     <use xlink:href="#DejaVuSans-43"/>
     <use xlink:href="#DejaVuSans-69" x="69.824219"/>
     <use xlink:href="#DejaVuSans-72" x="97.607422"/>
     <use xlink:href="#DejaVuSans-63" x="136.470703"/>
     <use xlink:href="#DejaVuSans-6c" x="191.451172"/>
     <use xlink:href="#DejaVuSans-65" x="219.234375"/>
     <use xlink:href="#DejaVuSans-20" x="280.757812"/>
     <use xlink:href="#DejaVuSans-46" x="312.544922"/>
     <use xlink:href="#DejaVuSans-69" x="362.814453"/>
     <use xlink:href="#DejaVuSans-74" x="390.597656"/>
    </g>
   </g>
  </g>
 </g>
 <defs>
  <clipPath id="pc1053ff3e5">
   <rect x="57.6" y="41.472" width="357.12" height="266.112"/>
  </clipPath>
 </defs>
</svg>
